<svg xmlns="http://www.w3.org/2000/svg" width="100" height="100" viewBox="0 0 100 100" fill="none">
  <defs>
    <linearGradient id="leafGradient" x1="0%" y1="0%" x2="100%" y2="100%">
      <stop offset="0%" style="stop-color:#22c55e;stop-opacity:1" />
      <stop offset="100%" style="stop-color:#16a34a;stop-opacity:1" />
    </linearGradient>
    <linearGradient id="waterGradient" x1="0%" y1="0%" x2="100%" y2="100%">
      <stop offset="0%" style="stop-color:#3b82f6;stop-opacity:1" />
      <stop offset="100%" style="stop-color:#1d4ed8;stop-opacity:1" />
    </linearGradient>
  </defs>
  
  <!-- Background Circle -->
  <circle cx="50" cy="50" r="48" fill="#f0fdf4" stroke="#22c55e" stroke-width="2"/>
  
  <!-- Water Drop -->
  <path d="M50 25 C42.5 32.5, 42.5 42.5, 50 50 C57.5 42.5, 57.5 32.5, 50 25 Z" fill="url(#waterGradient)"/>
  
  <!-- Leaves -->
  <path d="M35 35 Q30 30, 25 35 Q30 40, 35 35" fill="url(#leafGradient)"/>
  <path d="M65 35 Q70 30, 75 35 Q70 40, 65 35" fill="url(#leafGradient)"/>
  
  <!-- Recycling Symbol -->
  <g transform="translate(50, 65) scale(0.5)">
    <path d="M -8 -5 A 4 4 0 0 1 0 -9 L 4 -4 L 0 -4 A 4 4 0 0 1 -4 0 Z" fill="#16a34a"/>
    <path d="M 8 5 A 4 4 0 0 1 0 9 L -4 4 L 0 4 A 4 4 0 0 1 4 0 Z" fill="#16a34a"/>
    <path d="M 0 -5 A 4 4 0 0 1 8 2.5 L 2.5 7.5 L 2.5 2.5 A 4 4 0 0 1 -2.5 -2.5 Z" fill="#16a34a"/>
  </g>
  
  <!-- Text -->
  <text x="50" y="85" text-anchor="middle" font-family="Arial, sans-serif" font-size="8" font-weight="bold" fill="#16a34a">ECO</text>
</svg>
